<?xml version="1.0" encoding="utf-8"?>
<!-- Generator: Adobe Illustrator 25.0.0, SVG Export Plug-In . SVG Version: 6.00 Build 0)  -->
<svg version="1.1" id="Capa_1" xmlns="http://www.w3.org/2000/svg" xmlns:xlink="http://www.w3.org/1999/xlink" x="0px" y="0px"
	 viewBox="0 0 124.7 42.8" style="enable-background:new 0 0 124.7 42.8;" xml:space="preserve">
<style type="text/css">
	.st0{fill:#FFFFFF;}
	.st1{fill:#FF6B00;}
	.st2{fill:#221E20;}
</style>
<g>
	<g>
		<g>
			<g>
				<path d="M9.6,39.6v-5.8h1.8c0.6,0,1,0.1,1.3,0.4c0.3,0.3,0.5,0.7,0.5,1.2c0,0.3-0.1,0.6-0.3,0.9c-0.2,0.3-0.4,0.4-0.7,0.6
					c-0.3,0.1-0.7,0.2-1.3,0.2h-0.6v2.5H9.6z M11.3,34.6h-0.9v1.8h0.9c0.3,0,0.6-0.1,0.8-0.2c0.2-0.2,0.3-0.4,0.3-0.7
					C12.4,34.9,12,34.6,11.3,34.6z"/>
				<path d="M15.5,35.8c0.6,0,1.1,0.2,1.4,0.6s0.6,0.8,0.6,1.4c0,0.5-0.2,1-0.6,1.4c-0.4,0.4-0.9,0.5-1.5,0.5c-0.6,0-1-0.2-1.4-0.6
					c-0.4-0.4-0.6-0.8-0.6-1.4c0-0.6,0.2-1,0.6-1.4S14.9,35.8,15.5,35.8z M15.4,36.5c-0.4,0-0.7,0.1-0.9,0.4
					c-0.2,0.2-0.3,0.5-0.3,0.9c0,0.4,0.1,0.7,0.4,0.9c0.2,0.2,0.5,0.3,0.9,0.3c0.4,0,0.7-0.1,0.9-0.3c0.2-0.2,0.4-0.5,0.4-0.9
					c0-0.4-0.1-0.7-0.4-0.9C16.1,36.6,15.8,36.5,15.4,36.5z"/>
				<path d="M19.1,35.8v0.9l0-0.1c0.4-0.6,0.7-0.9,1.1-0.9c0.3,0,0.6,0.1,0.9,0.4l-0.4,0.7c-0.3-0.2-0.5-0.4-0.7-0.4
					c-0.2,0-0.5,0.1-0.6,0.3c-0.2,0.2-0.3,0.5-0.3,0.8v2h-0.8v-3.8H19.1z"/>
				<path d="M24,33.8h0.8v5.8H24V33.8z"/>
				<path d="M27.7,35.8c0.6,0,1.1,0.2,1.4,0.6c0.4,0.4,0.6,0.8,0.6,1.4c0,0.5-0.2,1-0.6,1.4s-0.9,0.5-1.5,0.5c-0.6,0-1-0.2-1.4-0.6
					c-0.4-0.4-0.6-0.8-0.6-1.4c0-0.6,0.2-1,0.6-1.4C26.6,36,27.1,35.8,27.7,35.8z M27.7,36.5c-0.4,0-0.7,0.1-0.9,0.4
					c-0.2,0.2-0.3,0.5-0.3,0.9c0,0.4,0.1,0.7,0.4,0.9c0.2,0.2,0.5,0.3,0.9,0.3c0.4,0,0.7-0.1,0.9-0.3c0.2-0.2,0.4-0.5,0.4-0.9
					c0-0.4-0.1-0.7-0.4-0.9C28.3,36.6,28,36.5,27.7,36.5z"/>
				<path d="M30.4,39.4v-0.8c0.2,0.1,0.4,0.3,0.7,0.4c0.2,0.1,0.4,0.1,0.6,0.1c0.2,0,0.3,0,0.4-0.1c0.1-0.1,0.2-0.2,0.2-0.3
					c0-0.1,0-0.2-0.1-0.3c-0.1-0.1-0.2-0.2-0.5-0.3c-0.5-0.3-0.8-0.5-1-0.7c-0.1-0.2-0.2-0.4-0.2-0.6c0-0.3,0.1-0.5,0.3-0.7
					c0.2-0.2,0.5-0.3,0.9-0.3c0.4,0,0.8,0.1,1.1,0.3v0.7c-0.4-0.3-0.8-0.4-1.1-0.4c-0.1,0-0.3,0-0.4,0.1c-0.1,0.1-0.1,0.1-0.1,0.2
					c0,0.1,0,0.2,0.1,0.3c0.1,0.1,0.2,0.2,0.4,0.3l0.3,0.2c0.6,0.4,1,0.8,1,1.2c0,0.3-0.1,0.6-0.4,0.8c-0.2,0.2-0.6,0.3-0.9,0.3
					c-0.2,0-0.4,0-0.6-0.1C30.9,39.6,30.6,39.5,30.4,39.4z"/>
				<path d="M36.9,35.8v0.5c0.3-0.4,0.7-0.6,1.1-0.6c0.2,0,0.5,0.1,0.7,0.2s0.4,0.3,0.5,0.5c0.1,0.2,0.2,0.6,0.2,1v2.2h-0.8v-2.2
					c0-0.4-0.1-0.7-0.2-0.8c-0.1-0.2-0.3-0.2-0.6-0.2c-0.4,0-0.7,0.2-0.9,0.5v2.7h-0.8v-3.8H36.9z"/>
				<path d="M40.8,34.2c0.1,0,0.2,0,0.3,0.1c0.1,0.1,0.1,0.2,0.1,0.3c0,0.1,0,0.2-0.1,0.3c-0.1,0.1-0.2,0.1-0.3,0.1
					c-0.1,0-0.2,0-0.3-0.1s-0.1-0.2-0.1-0.3c0-0.1,0-0.2,0.1-0.3S40.7,34.2,40.8,34.2z M40.4,35.8h0.8v3.8h-0.8V35.8z"/>
				<path d="M43,35.8v0.5c0.3-0.4,0.7-0.6,1.1-0.6c0.2,0,0.5,0.1,0.7,0.2c0.2,0.1,0.4,0.3,0.5,0.5c0.1,0.2,0.2,0.6,0.2,1v2.2h-0.8
					v-2.2c0-0.4-0.1-0.7-0.2-0.8c-0.1-0.2-0.3-0.2-0.6-0.2c-0.4,0-0.7,0.2-0.9,0.5v2.7h-0.8v-3.8H43z M45.1,33.8
					c0,0.3-0.1,0.6-0.2,0.8c-0.1,0.1-0.3,0.2-0.4,0.2c-0.1,0-0.4-0.1-0.6-0.2c-0.3-0.1-0.4-0.2-0.6-0.2c-0.1,0-0.1,0-0.2,0.1
					C43,34.7,43,34.7,43,34.8h-0.3c0-0.4,0.1-0.6,0.2-0.8c0.1-0.1,0.3-0.2,0.4-0.2c0.2,0,0.4,0.1,0.8,0.2c0.2,0.1,0.3,0.1,0.4,0.1
					s0.1,0,0.2-0.1c0.1-0.1,0.1-0.1,0.1-0.3H45.1z"/>
				<path d="M48.3,35.8c0.6,0,1.1,0.2,1.4,0.6c0.4,0.4,0.6,0.8,0.6,1.4c0,0.5-0.2,1-0.6,1.4c-0.4,0.4-0.9,0.5-1.5,0.5
					c-0.6,0-1-0.2-1.4-0.6c-0.4-0.4-0.6-0.8-0.6-1.4c0-0.6,0.2-1,0.6-1.4C47.3,36,47.7,35.8,48.3,35.8z M48.3,36.5
					c-0.4,0-0.7,0.1-0.9,0.4c-0.2,0.2-0.3,0.5-0.3,0.9c0,0.4,0.1,0.7,0.4,0.9c0.2,0.2,0.5,0.3,0.9,0.3c0.4,0,0.7-0.1,0.9-0.3
					c0.2-0.2,0.4-0.5,0.4-0.9c0-0.4-0.1-0.7-0.4-0.9C49,36.6,48.7,36.5,48.3,36.5z"/>
				<path d="M51,39.4v-0.8c0.2,0.1,0.4,0.3,0.7,0.4C51.9,39,52,39,52.2,39c0.2,0,0.3,0,0.4-0.1c0.1-0.1,0.2-0.2,0.2-0.3
					c0-0.1,0-0.2-0.1-0.3c-0.1-0.1-0.2-0.2-0.5-0.3c-0.5-0.3-0.8-0.5-1-0.7C51.1,37.2,51,37,51,36.7c0-0.3,0.1-0.5,0.3-0.7
					c0.2-0.2,0.5-0.3,0.9-0.3c0.4,0,0.8,0.1,1.1,0.3v0.7c-0.4-0.3-0.8-0.4-1.1-0.4c-0.1,0-0.3,0-0.4,0.1c-0.1,0.1-0.1,0.1-0.1,0.2
					c0,0.1,0,0.2,0.1,0.3c0.1,0.1,0.2,0.2,0.4,0.3l0.3,0.2c0.6,0.4,1,0.8,1,1.2c0,0.3-0.1,0.6-0.4,0.8c-0.2,0.2-0.6,0.3-0.9,0.3
					c-0.2,0-0.4,0-0.6-0.1C51.5,39.6,51.3,39.5,51,39.4z"/>
			</g>
		</g>
	</g>
	<g>
		<path class="st0" d="M111.9,19.2"/>
	</g>
	<path class="st1" d="M80.8,6.1C80.8,6.1,80.8,6.1,80.8,6.1c-0.1-0.1,0-0.1,0-0.1h37.2v22.6C109.5,16.5,96.2,8.1,80.8,6.1"/>
	<path class="st0" d="M111.9,19.2c0.3-3.7,0.2-5.9,0.8-6.5c0.6-0.5,1.7-0.7,3.5-0.8c-4-0.5-3.9-0.3-4.3-4.2
		c-0.4,3.9-0.3,3.7-4.3,4.2c1.8,0.1,2.9,0.3,3.5,0.8C111.7,13.3,111.7,15.4,111.9,19.2"/>
	<g>
		<path class="st2" d="M33.5,20.1v8h2.2v-6.5c0.7-0.6,1.3-0.4,2.8,0.8l0.9-2c-0.4-0.2-1-0.4-1.9-0.4c-0.8,0-1.5,0.4-1.8,0.8
			l-0.1,0.1l0,0l0-0.7H33.5z M42.5,15.9h-2.2v12.3h2.2V15.9z M23.5,24.2c0,2.2,1.7,4.1,4.4,4.1c2.7,0,4.4-1.9,4.4-4.1
			c0-2.2-1.7-4.1-4.4-4.1C25.1,20.1,23.5,21.9,23.5,24.2 M70.7,20.1h-2.2v8h2.2V20.1z M69.8,16.5c-0.7,0-1.2,0.5-1.2,1.2
			c0,0.7,0.5,1.2,1.2,1.2c0.7,0,1.2-0.5,1.2-1.2C71,17,70.5,16.5,69.8,16.5 M72,22.3c-0.2,3.1,4.3,2.3,4.1,4.2c-0.1,0.7-0.7,1-1.4,1
			c-1.1-0.1-1.8-0.7-2.4-1.4l-0.7,1.5c0.9,0.5,1.9,0.8,2.7,0.8c1.9,0.1,3.6-0.7,3.7-2.6c0.2-2.9-4.4-2.5-4.4-4c0-0.6,0.8-1,1.5-0.9
			c0.8,0.1,1.4,0.5,2,1.1l0.6-1.3c-0.8-0.4-1.6-0.5-2.3-0.6C73.5,19.9,72.1,21,72,22.3 M47.9,28.3c1,0,1.9-0.4,2.7-1l0,0v0.8h2.1
			V15.9h-2.2v4.9c-0.6-0.5-1.6-0.8-2.5-0.8c-1.2,0-4.1,0.7-4.1,4.3C43.8,26.9,46.1,28.3,47.9,28.3 M62.4,28.2h0.9L68,17.4h-1.2
			L63.5,25l-3.2-7.6h-2.7L62.4,28.2z M101.7,28.2v-4.4c0-3-2.3-3.7-3.6-3.7c-1,0-1.8,0.4-2.6,0.9l0,0v-0.8h-2.1v8h2.2v-6.5
			c0.7-0.6,1.3-0.8,1.9-0.8c1.2,0,2,1.1,2,2.4v4.9H101.7z M17.7,18.4h-1.3l-2.5,6.5l-2.7-7.5H8.6l4,10.7h1.2l2.6-6.6l2.6,6.6h1.2
			l4-10.7H23l-2.8,7.5L17.7,18.4z M29.8,24.2c0,1.9-0.6,3.3-2,3.3c-1.4,0-2-1.5-2-3.3c0-1.9,0.6-3.3,2-3.3
			C29.2,20.8,29.8,22.3,29.8,24.2 M83.3,24.2c0,2.2,1.7,4.1,4.4,4.1c2.7,0,4.4-1.9,4.4-4.1c0-2.2-1.7-4.1-4.4-4.1
			C84.9,20.1,83.3,21.9,83.3,24.2 M89.6,24.2c0,1.9-0.6,3.3-2,3.3c-1.4,0-2-1.5-2-3.3c0-1.9,0.6-3.3,2-3.3
			C89,20.8,89.6,22.3,89.6,24.2 M50.4,21.7v4.9c-0.6,0.5-1.1,0.9-1.9,0.9c-1,0-2.3-0.8-2.3-3.3C46.2,21.6,48.2,19.7,50.4,21.7"/>
		<g>
			<rect x="79.6" y="20.1" class="st2" width="2.2" height="8"/>
			<path class="st2" d="M80.8,16.5c-0.7,0-1.2,0.5-1.2,1.2c0,0.7,0.5,1.2,1.2,1.2c0.7,0,1.2-0.5,1.2-1.2
				C81.9,17,81.4,16.5,80.8,16.5"/>
		</g>
	</g>
	<g>
		<path d="M121.9,6.9c0.2,0.2,0.3,0.5,0.3,0.8c0,0.3-0.1,0.6-0.3,0.8c-0.2,0.2-0.5,0.3-0.8,0.3c-0.3,0-0.6-0.1-0.8-0.3
			c-0.2-0.2-0.3-0.5-0.3-0.8c0-0.3,0.1-0.6,0.3-0.8c0.2-0.2,0.5-0.3,0.8-0.3C121.4,6.6,121.7,6.7,121.9,6.9z M121.8,8.4
			c0.2-0.2,0.3-0.4,0.3-0.7c0-0.3-0.1-0.5-0.3-0.7c-0.2-0.2-0.4-0.3-0.7-0.3c-0.3,0-0.5,0.1-0.7,0.3c-0.2,0.2-0.3,0.4-0.3,0.7
			c0,0.3,0.1,0.5,0.3,0.7c0.2,0.2,0.4,0.3,0.7,0.3C121.4,8.7,121.6,8.6,121.8,8.4z M120.7,7.1h0.5c0.1,0,0.2,0,0.3,0.1
			c0.1,0.1,0.1,0.1,0.1,0.2c0,0.1,0,0.2-0.1,0.2s-0.1,0.1-0.2,0.1c0.1,0,0.1,0,0.1,0.1c0,0,0.1,0.1,0.1,0.1l0.2,0.4h-0.3L121.3,8
			c-0.1-0.1-0.1-0.1-0.1-0.2c0,0-0.1,0-0.1,0h-0.1v0.5h-0.2V7.1z M121.1,7.6c0.1,0,0.1,0,0.2,0c0,0,0.1-0.1,0.1-0.2
			c0-0.1-0.1-0.2-0.3-0.2h-0.2v0.4H121.1z"/>
	</g>
</g>
</svg>
